<?xml version="1.0" standalone="no"?>
<!DOCTYPE svg PUBLIC "-//W3C//DTD SVG 20010904//EN"
 "http://www.w3.org/TR/2001/REC-SVG-20010904/DTD/svg10.dtd">
<svg version="1.0" xmlns="http://www.w3.org/2000/svg"
 width="392.000000pt" height="108.000000pt" viewBox="0 0 392.000000 108.000000"
 preserveAspectRatio="xMidYMid meet">
<metadata>
Created by potrace 1.16, written by Peter Selinger 2001-2019
</metadata>
<g transform="translate(0.000000,108.000000) scale(0.100000,-0.100000)"
fill="#ffffff" stroke="none">
<path d="M531 974 c-144 -38 -293 -162 -356 -296 -61 -127 -78 -253 -50 -361
26 -101 99 -187 193 -229 67 -30 233 -36 337 -13 l77 17 24 51 c13 29 24 58
24 65 0 18 6 16 56 -19 68 -47 123 -62 212 -57 127 6 227 71 283 183 20 42 24
64 24 145 0 111 -21 167 -90 235 -68 69 -124 90 -235 90 -111 0 -167 -21 -235
-90 -69 -68 -90 -124 -90 -235 0 -85 3 -102 28 -149 l27 -54 -25 -44 c-118
-200 -432 -145 -510 91 -57 173 -7 400 115 524 112 114 313 163 445 108 l35
-15 0 35 0 34 -117 -1 c-70 0 -140 -6 -172 -15z m529 -339 c0 -37 42 -55 70
-30 20 18 21 18 42 -3 21 -21 21 -22 3 -42 -25 -28 -7 -70 30 -70 21 0 25 -5
25 -30 0 -25 -4 -30 -25 -30 -35 0 -53 -45 -28 -72 16 -18 16 -20 -5 -40 -21
-21 -22 -21 -42 -3 -28 25 -70 7 -70 -30 0 -21 -5 -25 -30 -25 -25 0 -30 4
-30 25 0 37 -42 55 -70 30 -20 -18 -21 -18 -42 3 -21 21 -21 22 -3 42 25 28 7
70 -30 70 -21 0 -25 5 -25 30 0 25 4 30 25 30 37 0 55 42 30 70 -18 20 -18 21
3 42 21 21 22 21 42 3 28 -25 70 -7 70 30 0 21 5 25 30 25 25 0 30 -4 30 -25z"/>
<path d="M966 525 c-35 -33 -36 -91 -1 -129 18 -20 34 -26 65 -26 31 0 47 6
65 26 56 60 16 154 -65 154 -25 0 -45 -8 -64 -25z"/>
<path d="M2323 718 c-13 -6 -41 -46 -65 -94 -37 -72 -47 -84 -68 -84 -26 0
-50 -16 -50 -33 0 -5 14 -5 31 -2 28 6 31 5 26 -11 -63 -200 -72 -268 -39
-297 26 -24 73 -21 110 6 31 23 72 69 72 81 0 16 -29 3 -55 -24 -84 -88 -99
28 -28 218 l16 42 58 0 c33 0 59 4 59 10 0 6 -25 10 -55 10 l-56 0 46 88 c25
48 45 91 45 95 0 10 -21 8 -47 -5z"/>
<path d="M1486 529 c-31 -24 -49 -55 -41 -69 4 -6 20 4 37 22 18 19 33 28 35
21 2 -6 -19 -79 -46 -161 -28 -83 -51 -153 -51 -156 0 -11 48 -6 57 7 5 6 20
38 33 70 46 118 123 212 189 232 27 8 29 19 -18 -115 -32 -89 -40 -167 -19
-188 19 -19 71 -14 102 11 l29 23 23 -23 c19 -19 34 -23 84 -23 70 0 111 17
128 55 21 45 14 88 -22 148 -44 72 -50 91 -37 115 24 45 68 36 73 -14 4 -47
20 -47 36 1 12 35 11 41 -4 52 -10 7 -39 13 -65 13 -36 0 -55 -6 -78 -26 -44
-37 -42 -77 9 -161 47 -79 51 -113 14 -142 -33 -26 -55 -26 -85 -2 -22 18 -23
21 -10 56 16 45 8 55 -22 27 -13 -12 -27 -22 -31 -22 -5 0 -19 -11 -32 -25
-13 -14 -31 -25 -40 -25 -28 0 -13 102 30 200 44 101 41 120 -17 120 -48 0
-72 -13 -139 -78 l-48 -46 10 34 c6 19 10 47 10 62 0 25 -4 28 -34 28 -19 0
-45 -9 -60 -21z"/>
<path d="M2521 533 c-88 -44 -151 -147 -151 -248 0 -77 18 -105 66 -105 29 0
45 9 90 54 l54 55 0 -39 c0 -57 8 -70 42 -70 34 0 78 28 102 64 24 37 3 40
-34 4 -28 -26 -34 -29 -42 -15 -18 34 30 186 84 265 l30 43 -44 0 c-24 -1 -70
2 -103 4 -45 4 -69 1 -94 -12z m118 -28 c18 -17 5 -49 -52 -138 -70 -110 -125
-153 -141 -111 -14 36 -5 120 18 170 41 88 125 126 175 79z"/>
<path d="M2846 529 c-31 -24 -49 -55 -41 -69 4 -6 20 4 37 22 18 19 33 28 35
21 2 -6 -19 -79 -46 -161 -28 -83 -51 -153 -51 -156 0 -11 48 -6 57 7 5 6 20
38 33 70 46 118 123 212 189 232 27 8 29 19 -18 -115 -32 -89 -40 -167 -19
-188 25 -25 75 -14 118 26 40 38 51 62 29 62 -7 0 -22 -11 -35 -25 -13 -14
-31 -25 -40 -25 -28 0 -13 102 30 200 44 101 41 120 -17 120 -48 0 -72 -13
-139 -78 l-48 -46 10 34 c6 19 10 47 10 62 0 25 -4 28 -34 28 -19 0 -45 -9
-60 -21z"/>
<path d="M3333 531 c-66 -41 -123 -157 -123 -251 0 -75 20 -100 82 -100 43 0
91 28 135 79 43 50 19 57 -33 11 -78 -68 -120 -48 -117 56 3 86 40 170 79 180
36 9 59 -7 57 -40 -2 -34 19 -34 46 0 26 33 26 46 3 67 -25 23 -90 21 -129 -2z"/>
<path d="M3622 530 c-63 -38 -122 -163 -122 -257 0 -33 6 -50 25 -68 46 -47
155 -26 200 38 29 41 10 52 -28 16 -70 -66 -127 -37 -127 65 l0 42 69 22 c95
31 121 53 121 102 0 29 -5 42 -19 50 -31 16 -83 12 -119 -10z m54 -28 c17 -11
22 -35 13 -54 -10 -18 -96 -55 -106 -45 -10 11 18 67 45 87 27 22 32 23 48 12z"/>
</g>
</svg>
